<svg width="800" height="500" viewBox="0 0 800 500" xmlns="http://www.w3.org/2000/svg"><!-- Screen Shadow --><rect x="85" y="35" width="630" height="410" rx="15" fill="rgba(0,0,0,0.1)" filter="blur(10px)" /><!-- Lid/Screen Backing --><rect x="80" y="30" width="640" height="420" rx="18" fill="#232325" stroke="#3a3a3c" stroke-width="1" /><!-- Screen Bezel --><rect x="88" y="38" width="624" height="404" rx="12" fill="#000" /><!-- Display Panel --><rect x="105" y="55" width="590" height="370" rx="4" fill="#0f0f0f" /><!-- Webcam --><circle cx="400" cy="46" r="3" fill="#0a0a0c" /><circle cx="400" cy="46" r="1" fill="#1a2035" /><!-- Bottom Chassis (The Base) --><!-- Main Base Plate --><path d="M 40 450 L 760 450 L 780 475 L 20 475 Z" fill="#2c2c2e" /><path d="M 20 475 Q 20 485 40 485 L 760 485 Q 780 485 780 475" fill="#1a1a1b" /><!-- Trackpad Cutout (Indented look) --><path d="M 320 450 L 480 450 L 475 455 L 325 455 Z" fill="#111" opacity="0.5" /><!-- Hinge Area --><rect x="80" y="445" width="640" height="8" fill="#1a1a1b" /><!-- Screen Reflection --><rect x="105" y="55" width="590" height="150" fill="url(#grad_laptop)" opacity="0.05" /><defs><linearGradient id="grad_laptop" x1="0%" y1="0%" x2="0%" y2="100%"><stop offset="0%" style="stop-color:white;stop-opacity:1" /><stop offset="100%" style="stop-color:white;stop-opacity:0" /></linearGradient></defs></svg>