<svg width="400" height="800" viewBox="0 0 400 800" xmlns="http://www.w3.org/2000/svg"><!-- Outer Shadow --><rect x="45" y="45" width="310" height="710" rx="55" fill="rgba(0,0,0,0.2)" filter="blur(15px)" /><!-- Outer Body/Chassis --><rect x="40" y="40" width="320" height="720" rx="52" fill="#1a1a1b" stroke="#3d3d3f" stroke-width="2" /><!-- Antenna Lines (Top & Bottom) --><line x1="40" y1="100" x2="360" y2="100" stroke="#2a2a2b" stroke-width="1" /><line x1="40" y1="700" x2="360" y2="700" stroke="#2a2a2b" stroke-width="1" /><!-- Screen Bezel (High Polish) --><rect x="48" y="48" width="304" height="704" rx="46" fill="#000" /><!-- Display Area (The usable screen) --><rect x="58" y="58" width="284" height="684" rx="38" fill="#111" /><!-- The "Dynamic Island" / Notch Area --><rect x="145" y="72" width="110" height="28" rx="14" fill="#000" /><!-- Front Camera Lens --><circle cx="230" cy="86" r="6" fill="#0a0a0c" /><circle cx="230" cy="86" r="2.5" fill="#1a2035" opacity="0.6" /><circle cx="229" cy="85" r="1" fill="rgba(255,255,255,0.2)" /><!-- FaceID / Sensor Area --><rect x="160" y="83" width="40" height="6" rx="3" fill="#0a0a0c" /><!-- Side Buttons (Left: Volume) --><rect x="36" y="160" width="4" height="50" rx="2" fill="#2a2a2b" /><rect x="36" y="220" width="4" height="50" rx="2" fill="#2a2a2b" /><!-- Side Buttons (Right: Power) --><rect x="360" y="200" width="4" height="80" rx="2" fill="#2a2a2b" /><!-- Screen Glare/Reflection --><path d="M 58 150 Q 150 100 250 180 T 342 120" stroke="white" stroke-width="0.5" fill="none" opacity="0.1" /></svg>